<?xml version="1.0" encoding="utf-8"?>
<!-- Generator: Adobe Illustrator 25.4.1, SVG Export Plug-In . SVG Version: 6.00 Build 0)  -->
<svg version="1.1" id="Layer_1" xmlns="http://www.w3.org/2000/svg" xmlns:xlink="http://www.w3.org/1999/xlink" x="0px" y="0px"
	 viewBox="0 0 370.64 139.13" enable-background="new 0 0 370.64 139.13" xml:space="preserve">
<g id="Layer_2_00000002368111977236243960000001908461478904534422_">
	<g id="Layer_1-2">
		<g id="M_M_Braces_LOGO_Light_BG">
			<g id="tooth_logo">
				
					<linearGradient id="tooth_00000174578352297065471140000012916185719044120727_" gradientUnits="userSpaceOnUse" x1="18.9031" y1="72.435" x2="148.612" y2="72.435" gradientTransform="matrix(1 0 0 -1 0 142)">
					<stop  offset="0" style="stop-color:#DD386D"/>
					<stop  offset="1" style="stop-color:#EA80A1"/>
				</linearGradient>
				<path id="tooth" fill="url(#tooth_00000174578352297065471140000012916185719044120727_)" d="M147.18,32.64
					C142.84,15.7,127.5,3.26,110.7,3.05h-0.08c-3.07,0.1-6.13,0.48-9.14,1.12C95.25,5.78,89.71,8.94,84.35,12
					c-0.18,0.11-0.38,0.19-0.59,0.23c-0.21-0.04-0.4-0.12-0.58-0.23C77.82,8.94,72.28,5.78,66,4.17c-2.99-0.64-6.04-1.01-9.1-1.12
					h-0.07C40,3.26,24.68,15.7,20.34,32.64C17.43,44,19.5,56.36,21.62,65.86c3.72,16.61,10.66,32.92,21.22,49.86
					c3.9,6.26,8.76,14.05,15.75,17.95c2.8,1.58,5.97,2.42,9.19,2.41c4.79-0.06,9.41-1.76,13.1-4.82l-7.34-9.08l-0.19,0.15
					c-1.43,1.28-3.26,2.01-5.18,2.08c-1.6-0.04-3.15-0.53-4.49-1.41c-1.31-0.82-2.5-1.83-3.52-3c-3.3-4.01-6.26-8.28-8.84-12.78
					l-0.42-0.68c-3.15-5.07-5.97-10.33-8.46-15.76c-3.87-8.28-6.88-16.93-9-25.82c-1.78-7.86-3.56-17-2.22-26.12
					c1.51-10.32,6.7-17.68,15.41-21.9c3.16-1.61,6.64-2.47,10.19-2.52c2.11,0.02,4.21,0.36,6.22,1c4.91,1.68,9.62,3.89,14.06,6.58
					l0.43,0.34l0.07,0.05h0.06c1.79,1.17,3.87,1.8,6,1.83h0.3c2.13-0.03,4.21-0.66,6-1.83h0.07l0.06-0.05L90.53,22
					c4.45-2.72,9.17-4.94,14.1-6.64c2.01-0.64,4.11-0.98,6.22-1c3.53,0.06,7.01,0.94,10.15,2.55c8.71,4.22,13.89,11.58,15.41,21.9
					c1.34,9.1-0.45,18.26-2.23,26.12c-2.11,8.89-5.13,17.54-9,25.82c-1.49,3.32-3.2,6.67-5.21,10.25
					c-2.11,3.38-4.35,6.84-6.51,10.17l-0.82,1.28l-0.2,0.29c-2.28,3.53-4.44,6.87-7.61,9.39c-1.53,1.33-3.48,2.1-5.51,2.16
					c-1.06,0-2.1-0.23-3.06-0.67c-0.71-0.35-1.38-0.79-2-1.29l-1-0.83l-0.54-0.44c-1.05-1.06-2.01-2.22-2.86-3.45
					c-2.17-3.12-4.54-6.2-6.82-9.19C75.12,98.2,67,87.63,65.42,74.4c-0.29-2.45-0.49-6,1.17-8.57c1.33-1.94,3.54-3.09,5.89-3.09
					c0.68-0.01,1.35,0.09,2,0.3c1,0.37,1.96,0.84,2.87,1.4c1.6,1.07,3.42,1.75,5.32,2h0.48c2.32,0,4.3-1.06,6.21-2.09
					c1.4-0.9,2.97-1.49,4.61-1.76h0.33c2.46,0.19,4.64,1.68,5.7,3.91c1.18,2.59,1.56,5.47,1.09,8.28C100,84.79,93.86,93.54,88,102
					c-0.76,1.09-1.52,2.18-2.26,3.26l7.62,9.44c7-9.42,13.93-19.58,17.48-31.16c3.21-10.44,2.17-19.88-2.85-25.9
					c-3.57-4.1-8.76-6.42-14.19-6.36c-3.04-0.02-6.04,0.75-8.7,2.23l-0.28,0.16c-0.49,0.35-1.05,0.59-1.64,0.69h-0.06
					c-0.46-0.1-0.9-0.3-1.29-0.58l-0.23-0.14c-5.41-3.13-12.06-3.28-17.6-0.38C57,57,53.36,65.18,54.16,75.2
					c1.05,13.31,8.84,24.45,15.61,34.28l4.68,6.75L75.7,118c0.51,0.73,1,1.46,1.5,2.19c2.5,3.68,5.08,7.49,8.63,10.53
					c2.39,2.08,5.2,3.62,8.25,4.49c1.84,0.56,3.75,0.85,5.67,0.85c3.22,0.01,6.38-0.82,9.18-2.41c7-3.9,11.85-11.69,15.76-17.95
					c10.56-16.94,17.5-33.25,21.21-49.86C148,56.36,150.09,44,147.18,32.64z"/>
				
					<linearGradient id="wire_00000162310490371121251510000006681943669012169127_" gradientUnits="userSpaceOnUse" x1="0" y1="79.17" x2="165.6" y2="79.17" gradientTransform="matrix(1 0 0 -1 0 142)">
					<stop  offset="0" style="stop-color:#5AC9EB"/>
					<stop  offset="1" style="stop-color:#2C7DC0"/>
				</linearGradient>
				<path id="wire" fill="url(#wire_00000162310490371121251510000006681943669012169127_)" d="M165.6,45l-0.18-0.21l-0.77,0.66
					C108.75,85.51,53.7,85.54,1,45.48l-0.82-0.73L0,45h0.05v0.06l0.87,0.67c13.15,11.55,26.58,20.36,39.9,26.18
					c12.94,5.82,26.94,8.88,41.13,9H82c14.33-0.14,28.49-3.21,41.6-9c13.58-5.84,27.42-14.65,41.14-26.2l0.81-0.58v-0.07L165.6,45z"
					/>
				<g id="brace">
					
						<linearGradient id="SVGID_1_" gradientUnits="userSpaceOnUse" x1="77.21" y1="64.005" x2="81.65" y2="64.005" gradientTransform="matrix(1 0 0 -1 0 142)">
						<stop  offset="0" style="stop-color:#EA80A1"/>
						<stop  offset="1" style="stop-color:#DD386D"/>
					</linearGradient>
					<path fill="url(#SVGID_1_)" d="M78.14,72.21h2.58c0.51,0,0.93,0.42,0.93,0.93v9.71c0,0.51-0.42,0.93-0.93,0.93h-2.58
						c-0.51,0-0.93-0.42-0.93-0.93v-9.71C77.21,72.63,77.63,72.21,78.14,72.21z"/>
					
						<linearGradient id="SVGID_00000150061204895219590310000011371818544864314533_" gradientUnits="userSpaceOnUse" x1="83.94" y1="64.005" x2="88.38" y2="64.005" gradientTransform="matrix(1 0 0 -1 0 142)">
						<stop  offset="0" style="stop-color:#EA80A1"/>
						<stop  offset="1" style="stop-color:#DD386D"/>
					</linearGradient>
					<path fill="url(#SVGID_00000150061204895219590310000011371818544864314533_)" d="M84.87,72.21h2.58
						c0.51,0,0.93,0.42,0.93,0.93v9.71c0,0.51-0.42,0.93-0.93,0.93h-2.58c-0.51,0-0.93-0.42-0.93-0.93v-9.71
						C83.94,72.63,84.36,72.21,84.87,72.21z"/>
				</g>
			</g>
			<g id="Letter_logo">
				<g id="MPink">
					
						<linearGradient id="SVGID_00000072239240770069789360000004591040326953332628_" gradientUnits="userSpaceOnUse" x1="205.7042" y1="107.165" x2="299.43" y2="107.165" gradientTransform="matrix(1 0 0 -1 0 142)">
						<stop  offset="0" style="stop-color:#EA80A1"/>
						<stop  offset="1" style="stop-color:#DD386D"/>
					</linearGradient>
					<path fill="url(#SVGID_00000072239240770069789360000004591040326953332628_)" d="M299.43,69.67h-25.62V32.81
						c0-2.83-0.3-4.8-0.89-5.89c-0.66-1.13-1.92-1.77-3.22-1.64c-2.88,0-4.32,2.53-4.32,7.6v36.79h-25.62V32.81
						c0-2.83-0.31-4.8-0.93-5.89c-0.68-1.13-1.94-1.77-3.25-1.64c-2.83,0-4.25,2.53-4.25,7.6v36.79h-25.62V27.61
						c-0.15-7.29,2.64-14.34,7.74-19.56c4.84-5.21,11.66-8.12,18.77-8c7.58,0,14.39,3.2,20.42,9.59C259.35,3.21,266.07,0,272.78,0
						c8.54,0,15.39,3.11,20.55,9.32c4.06,4.84,6.09,11.89,6.1,21.16V69.67z"/>
				</g>
				<g id="Mblue" opacity="0.9">
					
						<linearGradient id="SVGID_00000124161540822222143000000002038531881526634426_" gradientUnits="userSpaceOnUse" x1="273.8641" y1="107.165" x2="367.59" y2="107.165" gradientTransform="matrix(1 0 0 -1 0 142)">
						<stop  offset="0" style="stop-color:#5AC9EB"/>
						<stop  offset="1" style="stop-color:#2C7DC0"/>
					</linearGradient>
					<path fill="url(#SVGID_00000124161540822222143000000002038531881526634426_)" d="M367.59,69.67H342V32.81
						c0-2.83-0.3-4.8-0.89-5.89c-0.66-1.13-1.92-1.77-3.22-1.64c-2.88,0-4.32,2.53-4.32,7.6v36.79h-25.65V32.81
						c0-2.83-0.31-4.8-0.92-5.89c-0.68-1.13-1.95-1.76-3.26-1.64c-2.83,0-4.25,2.53-4.25,7.6v36.79h-25.62V27.61
						c-0.15-7.3,2.64-14.35,7.75-19.56c4.83-5.21,11.66-8.12,18.77-8c7.58,0,14.38,3.2,20.41,9.59C327.51,3.21,334.23,0,340.94,0
						c8.54,0,15.39,3.11,20.55,9.32c4.07,4.84,6.11,11.89,6.1,21.16V69.67z"/>
				</g>
				<g id="Braces">
					<path fill="#3F4040" d="M228.89,101.23c1.08,1.41,1.64,3.15,1.57,4.92c0.02,1.14-0.19,2.26-0.61,3.32
						c-0.4,1-1.01,1.9-1.79,2.63c-0.88,0.79-1.93,1.38-3.06,1.73c-1.38,0.43-2.83,0.64-4.28,0.62h-12.43v-30h10.84
						c3.19,0,5.63,0.63,7.3,1.88c1.69,1.29,2.63,3.33,2.51,5.45c0,0.9-0.15,1.8-0.44,2.65c-0.33,0.87-0.84,1.66-1.5,2.32
						c-0.73,0.75-1.62,1.34-2.6,1.7v0.08C226.16,98.9,227.74,99.85,228.89,101.23z M214.14,96.72h4.25
						c0.76,0.01,1.51-0.11,2.23-0.36c0.64-0.23,1.21-0.64,1.64-1.18c0.44-0.57,0.67-1.28,0.65-2c0.06-1.36-0.81-2.6-2.11-3
						c-0.9-0.32-1.85-0.47-2.8-0.44h-3.86L214.14,96.72z M221.72,108.8c0.73-0.24,1.38-0.68,1.87-1.28c0.46-0.6,0.7-1.35,0.68-2.11
						c0.05-1.12-0.46-2.19-1.35-2.86c-1.16-0.76-2.55-1.11-3.93-1h-4.85v7.72h4.78C219.87,109.28,220.82,109.12,221.72,108.8z"/>
					<path fill="#3F4040" d="M251.56,114.45l-6.73-10.28h-3.44v10.28h-5.87v-30h11.36c1.59-0.03,3.17,0.23,4.67,0.75
						c1.25,0.42,2.38,1.14,3.29,2.1c0.83,0.91,1.47,1.99,1.87,3.16c0.43,1.29,0.65,2.64,0.63,4c0.02,1.43-0.23,2.85-0.75,4.18
						c-0.46,1.15-1.18,2.18-2.11,3c-0.96,0.83-2.08,1.46-3.29,1.84v0.08l7.41,10.9L251.56,114.45z M241.39,98.93h4.17
						c1.49,0.09,2.97-0.35,4.17-1.25c1.87-1.77,1.96-4.73,0.19-6.6c-0.04-0.05-0.09-0.09-0.14-0.14c-1.13-0.9-2.56-1.34-4-1.24
						h-4.41L241.39,98.93z"/>
					<path fill="#3F4040" d="M280.57,108.44h-11.52l-2,6h-6.25l11.12-30h5.74l11.17,30h-6.21L280.57,108.44z M278.84,103.36
						l-4-11.78l0,0l-4,11.78H278.84z"/>
					<path fill="#3F4040" d="M300.56,114.14c-1.49-0.4-2.91-1.04-4.19-1.9c-1.27-0.84-2.39-1.87-3.34-3.06
						c-0.98-1.28-1.74-2.73-2.22-4.27c-0.55-1.74-0.82-3.56-0.8-5.39c-0.01-1.65,0.21-3.3,0.64-4.9c0.41-1.51,1.06-2.94,1.93-4.24
						c0.85-1.27,1.89-2.39,3.1-3.33c1.28-0.99,2.72-1.73,4.27-2.2c1.73-0.54,3.54-0.81,5.36-0.79c1.42,0,2.83,0.2,4.19,0.58
						c3.05,0.91,5.75,2.71,7.76,5.18l-4.36,3.72c-0.93-1.13-2.08-2.07-3.38-2.76c-1.29-0.7-2.74-1.07-4.21-1.06
						c-0.72-0.01-1.44,0.07-2.15,0.23c-0.67,0.14-1.32,0.37-1.94,0.67c-0.6,0.29-1.17,0.65-1.68,1.07
						c-0.52,0.43-0.99,0.92-1.39,1.46c-0.39,0.56-0.73,1.17-1,1.8c-0.3,0.69-0.52,1.4-0.66,2.14c-0.15,0.8-0.23,1.61-0.23,2.43
						c-0.04,1.74,0.36,3.45,1.15,5c0.73,1.42,1.84,2.61,3.22,3.42c1.43,0.83,3.07,1.25,4.72,1.22c1.47,0.02,2.92-0.33,4.23-1
						c1.3-0.67,2.45-1.61,3.36-2.76l4.36,3.73c-1.39,1.73-3.14,3.14-5.12,4.14c-2.12,1.06-4.46,1.59-6.83,1.56
						C303.73,114.82,302.12,114.58,300.56,114.14z"/>
					<path fill="#3F4040" d="M321.89,84.41h19.19v5.33h-13.33v7.2h10.69v5.25h-10.69v7H342v5.31h-20.11V84.41z"/>
					<path fill="#3F4040" d="M350.47,113.62c-1.94-0.82-3.68-2.03-5.13-3.55l3.57-4.39c0.54,0.62,1.14,1.18,1.79,1.67
						c0.6,0.45,1.24,0.85,1.92,1.17c0.61,0.3,1.25,0.53,1.91,0.69c0.61,0.15,1.23,0.22,1.85,0.22c0.82,0.02,1.63-0.11,2.39-0.41
						c0.58-0.22,1.09-0.61,1.45-1.11c0.33-0.49,0.49-1.07,0.48-1.66c0.01-0.4-0.06-0.8-0.21-1.17c-0.13-0.34-0.33-0.64-0.57-0.91
						c-0.31-0.31-0.66-0.57-1.05-0.78c-0.46-0.25-0.94-0.48-1.43-0.68c-0.5-0.2-1.15-0.43-2-0.71l-1.94-0.72
						c-0.62-0.25-1.23-0.53-1.83-0.84c-0.6-0.29-1.17-0.63-1.72-1c-0.51-0.36-0.99-0.77-1.43-1.22c-0.46-0.44-0.85-0.95-1.16-1.5
						c-0.31-0.58-0.55-1.2-0.72-1.84c-0.19-0.72-0.29-1.47-0.28-2.22c-0.01-1.54,0.43-3.05,1.28-4.33c0.87-1.32,2.07-2.39,3.49-3.09
						c1.51-0.76,3.18-1.17,4.87-1.18c3.72-0.01,7.32,1.33,10.12,3.78l-3.43,4.48c-2.41-2-4.59-2.98-6.54-2.95
						c-0.93-0.04-1.85,0.24-2.59,0.8c-0.66,0.54-1.02,1.36-1,2.21c0,0.34,0.07,0.69,0.21,1c0.13,0.31,0.32,0.58,0.56,0.82
						c0.3,0.29,0.63,0.54,1,0.74c0.45,0.25,0.91,0.48,1.38,0.68c0.46,0.2,1.09,0.45,1.87,0.76c1.7,0.62,3.37,1.33,5,2.12
						c1.64,0.79,2.96,2.12,3.73,3.78c0.41,1.04,0.6,2.15,0.58,3.26c0.02,1.19-0.2,2.37-0.64,3.48c-0.38,0.98-0.96,1.87-1.69,2.62
						c-0.72,0.71-1.55,1.31-2.45,1.78c-0.9,0.46-1.87,0.8-2.86,1c-0.99,0.21-1.99,0.32-3,0.32
						C354.27,114.76,352.3,114.38,350.47,113.62z"/>
				</g>
				<g id="_">
					<path fill="#3F4040" d="M295.91,34l-4.44,6c-1.92,2.61-3.27,4.59-6.93,4.59s-5.4-2.37-5.4-4.64c0-2.42,1.62-3.82,4.6-5.24
						c1.7-0.6,3.37-1.55,3.37-3.14c0.09-0.86-0.53-1.64-1.39-1.73c-0.06-0.01-0.12-0.01-0.18-0.01c-0.88,0.02-1.57,0.76-1.55,1.63
						c0,0.03,0,0.06,0.01,0.1c0,1,0.83,1.81,1.79,2.72l10.27,10h-4.45l-8.82-8.65c-1.16-0.95-1.88-2.33-2-3.82
						c-0.03-2.43,1.92-4.42,4.35-4.45c0.13,0,0.26,0,0.39,0.01c3,0,4.63,1.95,4.63,4.07s-1.66,3.49-4.7,4.9
						c-2.15,0.87-2.77,2.06-2.77,3.12c-0.05,1.14,0.84,2.11,1.98,2.16c0.09,0,0.19,0,0.28-0.01c1.77,0,2.48-0.91,4.5-3.66l2.94-4
						L295.91,34z"/>
				</g>
				<g enable-background="new    ">
					<path fill="#3F4040" d="M206.09,127.77c0.31-0.54,0.73-0.97,1.27-1.27c0.54-0.3,1.14-0.46,1.81-0.46c0.78,0,1.46,0.2,2.05,0.6
						c0.59,0.4,1,0.95,1.23,1.66h-1.61c-0.16-0.33-0.39-0.58-0.68-0.75c-0.29-0.17-0.62-0.25-1-0.25c-0.41,0-0.77,0.09-1.08,0.28
						c-0.32,0.19-0.56,0.46-0.74,0.81c-0.18,0.35-0.27,0.75-0.27,1.22c0,0.46,0.09,0.87,0.27,1.21c0.18,0.35,0.42,0.62,0.74,0.81
						c0.32,0.19,0.68,0.28,1.08,0.28c0.38,0,0.72-0.08,1-0.25c0.29-0.17,0.52-0.42,0.68-0.75h1.61c-0.23,0.71-0.64,1.27-1.22,1.67
						c-0.58,0.4-1.27,0.59-2.05,0.59c-0.67,0-1.27-0.15-1.81-0.45c-0.54-0.3-0.96-0.73-1.27-1.27c-0.31-0.54-0.46-1.15-0.46-1.84
						S205.78,128.31,206.09,127.77z"/>
					<path fill="#3F4040" d="M217.89,127.77c0.33,0.18,0.58,0.45,0.76,0.81s0.28,0.79,0.28,1.29v3.25h-1.4v-3.06
						c0-0.44-0.11-0.78-0.33-1.02c-0.22-0.24-0.52-0.35-0.9-0.35c-0.39,0-0.69,0.12-0.92,0.35c-0.22,0.24-0.33,0.58-0.33,1.02v3.06
						h-1.4v-7.4h1.4v2.55c0.18-0.24,0.42-0.43,0.72-0.57c0.3-0.14,0.63-0.21,1-0.21C217.19,127.49,217.56,127.58,217.89,127.77z"/>
					<path fill="#3F4040" d="M220.35,126.68c-0.16-0.16-0.25-0.35-0.25-0.58s0.08-0.43,0.25-0.59c0.16-0.16,0.37-0.23,0.62-0.23
						c0.25,0,0.45,0.08,0.62,0.23c0.16,0.16,0.24,0.35,0.24,0.59s-0.08,0.43-0.24,0.58c-0.16,0.16-0.37,0.23-0.62,0.23
						C220.72,126.91,220.51,126.83,220.35,126.68z M221.66,127.57v5.54h-1.4v-5.54H221.66z"/>
					<path fill="#3F4040" d="M224.44,125.71v7.4h-1.4v-7.4H224.44z"/>
					<path fill="#3F4040" d="M225.79,128.83c0.22-0.43,0.53-0.77,0.92-1s0.82-0.35,1.29-0.35c0.36,0,0.7,0.08,1.03,0.24
						c0.33,0.16,0.59,0.36,0.78,0.62v-2.63h1.42v7.4h-1.42v-0.82c-0.17,0.27-0.42,0.49-0.73,0.66c-0.31,0.17-0.68,0.25-1.09,0.25
						c-0.47,0-0.89-0.12-1.28-0.36c-0.39-0.24-0.69-0.58-0.92-1.02s-0.33-0.94-0.33-1.5C225.46,129.76,225.57,129.26,225.79,128.83z
						 M229.62,129.47c-0.13-0.24-0.31-0.43-0.54-0.56s-0.47-0.2-0.73-0.2c-0.26,0-0.5,0.06-0.72,0.19c-0.22,0.13-0.4,0.31-0.54,0.55
						c-0.14,0.24-0.21,0.53-0.21,0.87s0.07,0.62,0.21,0.88s0.32,0.44,0.54,0.58c0.22,0.13,0.46,0.2,0.72,0.2
						c0.26,0,0.5-0.07,0.73-0.2s0.41-0.32,0.54-0.56c0.13-0.24,0.2-0.54,0.2-0.88C229.82,130,229.75,129.71,229.62,129.47z"/>
					<path fill="#3F4040" d="M234.7,127.74c0.29-0.17,0.62-0.25,1-0.25v1.47h-0.37c-0.44,0-0.77,0.1-1,0.31
						c-0.22,0.21-0.33,0.57-0.33,1.08v2.76h-1.4v-5.54h1.4v0.86C234.18,128.14,234.41,127.91,234.7,127.74z"/>
					<path fill="#3F4040" d="M241.75,130.76h-4.05c0.03,0.4,0.17,0.71,0.42,0.94c0.25,0.23,0.55,0.34,0.91,0.34
						c0.52,0,0.89-0.22,1.11-0.67h1.51c-0.16,0.53-0.47,0.97-0.92,1.32c-0.45,0.34-1.01,0.51-1.67,0.51c-0.53,0-1.01-0.12-1.44-0.35
						c-0.42-0.24-0.75-0.57-0.99-1c-0.24-0.43-0.36-0.93-0.36-1.5c0-0.57,0.12-1.08,0.35-1.51c0.23-0.43,0.56-0.77,0.98-1
						s0.9-0.35,1.45-0.35c0.53,0,1,0.11,1.42,0.34c0.42,0.23,0.74,0.55,0.97,0.96c0.23,0.42,0.34,0.9,0.34,1.44
						C241.79,130.42,241.77,130.6,241.75,130.76z M240.34,129.82c-0.01-0.36-0.14-0.65-0.39-0.87c-0.25-0.22-0.56-0.33-0.93-0.33
						c-0.35,0-0.64,0.11-0.88,0.32s-0.38,0.5-0.44,0.88H240.34z"/>
					<path fill="#3F4040" d="M247.48,128.12c0.41,0.42,0.61,1,0.61,1.75v3.25h-1.4v-3.06c0-0.44-0.11-0.78-0.33-1.02
						c-0.22-0.24-0.52-0.35-0.9-0.35c-0.39,0-0.69,0.12-0.92,0.35c-0.22,0.24-0.33,0.58-0.33,1.02v3.06h-1.4v-5.54h1.4v0.69
						c0.19-0.24,0.43-0.43,0.72-0.57s0.61-0.21,0.95-0.21C246.54,127.49,247.07,127.7,247.48,128.12z"/>
					<path fill="#3F4040" d="M251.77,128.83c0.22-0.43,0.53-0.77,0.91-1c0.38-0.23,0.81-0.35,1.28-0.35c0.41,0,0.78,0.08,1.08,0.25
						c0.31,0.17,0.56,0.38,0.75,0.63v-0.79h1.41v5.54h-1.41v-0.81c-0.18,0.26-0.43,0.47-0.75,0.64c-0.32,0.17-0.68,0.25-1.09,0.25
						c-0.47,0-0.89-0.12-1.27-0.36c-0.38-0.24-0.69-0.58-0.91-1.02c-0.22-0.44-0.33-0.94-0.33-1.5
						C251.44,129.76,251.55,129.26,251.77,128.83z M255.6,129.47c-0.13-0.24-0.31-0.43-0.54-0.56c-0.23-0.13-0.47-0.2-0.73-0.2
						s-0.5,0.06-0.72,0.19c-0.22,0.13-0.4,0.31-0.54,0.55c-0.14,0.24-0.21,0.53-0.21,0.87s0.07,0.62,0.21,0.88s0.32,0.44,0.54,0.58
						c0.22,0.13,0.46,0.2,0.71,0.2c0.26,0,0.5-0.07,0.73-0.2c0.23-0.13,0.41-0.32,0.54-0.56c0.13-0.24,0.2-0.54,0.2-0.88
						C255.8,130,255.73,129.71,255.6,129.47z"/>
					<path fill="#3F4040" d="M263.25,128.12c0.41,0.42,0.61,1,0.61,1.75v3.25h-1.4v-3.06c0-0.44-0.11-0.78-0.33-1.02
						c-0.22-0.24-0.52-0.35-0.9-0.35c-0.39,0-0.69,0.12-0.92,0.35c-0.22,0.24-0.33,0.58-0.33,1.02v3.06h-1.4v-5.54h1.4v0.69
						c0.19-0.24,0.43-0.43,0.72-0.57s0.61-0.21,0.95-0.21C262.31,127.49,262.84,127.7,263.25,128.12z"/>
					<path fill="#3F4040" d="M265.16,128.83c0.22-0.43,0.53-0.77,0.92-1s0.82-0.35,1.29-0.35c0.36,0,0.7,0.08,1.03,0.24
						c0.33,0.16,0.59,0.36,0.78,0.62v-2.63h1.42v7.4h-1.42v-0.82c-0.17,0.27-0.42,0.49-0.73,0.66c-0.31,0.17-0.68,0.25-1.09,0.25
						c-0.47,0-0.89-0.12-1.28-0.36c-0.39-0.24-0.69-0.58-0.92-1.02c-0.22-0.44-0.33-0.94-0.33-1.5
						C264.83,129.76,264.94,129.26,265.16,128.83z M268.99,129.47c-0.13-0.24-0.31-0.43-0.54-0.56c-0.23-0.13-0.47-0.2-0.73-0.2
						s-0.5,0.06-0.72,0.19c-0.22,0.13-0.4,0.31-0.54,0.55c-0.14,0.24-0.21,0.53-0.21,0.87s0.07,0.62,0.21,0.88s0.32,0.44,0.54,0.58
						c0.22,0.13,0.46,0.2,0.71,0.2c0.26,0,0.5-0.07,0.73-0.2c0.23-0.13,0.41-0.32,0.54-0.56c0.13-0.24,0.2-0.54,0.2-0.88
						C269.19,130,269.12,129.71,268.99,129.47z"/>
					<path fill="#3F4040" d="M278.63,131.78h-2.78l-0.46,1.33h-1.47l2.51-6.99h1.63l2.51,6.99h-1.48L278.63,131.78z M278.25,130.66
						l-1.01-2.92l-1.01,2.92H278.25z"/>
					<path fill="#3F4040" d="M281.48,128.83c0.22-0.43,0.53-0.77,0.92-1s0.82-0.35,1.29-0.35c0.36,0,0.7,0.08,1.03,0.24
						c0.33,0.16,0.59,0.36,0.78,0.62v-2.63h1.42v7.4h-1.42v-0.82c-0.17,0.27-0.42,0.49-0.73,0.66c-0.31,0.17-0.68,0.25-1.09,0.25
						c-0.47,0-0.89-0.12-1.28-0.36c-0.39-0.24-0.69-0.58-0.92-1.02s-0.33-0.94-0.33-1.5C281.15,129.76,281.26,129.26,281.48,128.83z
						 M285.31,129.47c-0.13-0.24-0.31-0.43-0.54-0.56s-0.47-0.2-0.73-0.2c-0.26,0-0.5,0.06-0.72,0.19c-0.22,0.13-0.4,0.31-0.54,0.55
						c-0.14,0.24-0.21,0.53-0.21,0.87s0.07,0.62,0.21,0.88s0.32,0.44,0.54,0.58c0.22,0.13,0.46,0.2,0.72,0.2
						c0.26,0,0.5-0.07,0.73-0.2s0.41-0.32,0.54-0.56c0.13-0.24,0.2-0.54,0.2-0.88C285.51,130,285.44,129.71,285.31,129.47z"/>
					<path fill="#3F4040" d="M293.52,127.57v5.54h-1.41v-0.7c-0.18,0.24-0.42,0.43-0.71,0.57s-0.6,0.21-0.95,0.21
						c-0.43,0-0.82-0.09-1.15-0.28c-0.33-0.18-0.59-0.45-0.79-0.81s-0.29-0.78-0.29-1.28v-3.25h1.4v3.05c0,0.44,0.11,0.78,0.33,1.02
						c0.22,0.24,0.52,0.35,0.9,0.35c0.39,0,0.69-0.12,0.91-0.35c0.22-0.24,0.33-0.58,0.33-1.02v-3.05H293.52z"/>
					<path fill="#3F4040" d="M296.3,125.71v7.4h-1.4v-7.4H296.3z"/>
					<path fill="#3F4040" d="M299.31,128.72v2.68c0,0.19,0.04,0.32,0.13,0.41c0.09,0.08,0.24,0.12,0.46,0.12h0.65v1.18h-0.88
						c-1.18,0-1.77-0.57-1.77-1.72v-2.67h-0.66v-1.15h0.66v-1.37h1.41v1.37h1.24v1.15H299.31z"/>
					<path fill="#3F4040" d="M305.38,132.72c-0.55-0.31-0.98-0.73-1.3-1.28c-0.32-0.54-0.48-1.16-0.48-1.84
						c0-0.68,0.16-1.29,0.48-1.83c0.32-0.54,0.75-0.97,1.3-1.28c0.55-0.31,1.15-0.46,1.8-0.46c0.66,0,1.26,0.15,1.8,0.46
						c0.54,0.31,0.97,0.73,1.29,1.28c0.32,0.54,0.47,1.15,0.47,1.83c0,0.69-0.16,1.3-0.47,1.84c-0.32,0.54-0.75,0.97-1.29,1.28
						c-0.55,0.31-1.15,0.46-1.8,0.46C306.52,133.18,305.92,133.03,305.38,132.72z M308.29,131.65c0.32-0.19,0.57-0.46,0.75-0.82
						c0.18-0.35,0.27-0.76,0.27-1.23s-0.09-0.88-0.27-1.23c-0.18-0.35-0.43-0.62-0.75-0.8c-0.32-0.19-0.69-0.28-1.11-0.28
						c-0.42,0-0.79,0.09-1.12,0.28s-0.58,0.46-0.75,0.8c-0.18,0.35-0.27,0.76-0.27,1.23s0.09,0.88,0.27,1.23
						c0.18,0.35,0.43,0.62,0.75,0.82c0.32,0.19,0.69,0.29,1.12,0.29C307.6,131.93,307.97,131.83,308.29,131.65z"/>
					<path fill="#3F4040" d="M313.89,127.74c0.29-0.17,0.62-0.25,1-0.25v1.47h-0.37c-0.44,0-0.77,0.1-1,0.31s-0.33,0.57-0.33,1.08
						v2.76h-1.4v-5.54h1.4v0.86C313.37,128.14,313.6,127.91,313.89,127.74z"/>
					<path fill="#3F4040" d="M317.46,128.72v2.68c0,0.19,0.04,0.32,0.13,0.41c0.09,0.08,0.24,0.12,0.46,0.12h0.65v1.18h-0.88
						c-1.18,0-1.77-0.57-1.77-1.72v-2.67h-0.66v-1.15h0.66v-1.37h1.41v1.37h1.24v1.15H317.46z"/>
					<path fill="#3F4040" d="M323.95,127.77c0.33,0.18,0.58,0.45,0.76,0.81s0.28,0.79,0.28,1.29v3.25h-1.4v-3.06
						c0-0.44-0.11-0.78-0.33-1.02c-0.22-0.24-0.52-0.35-0.9-0.35c-0.39,0-0.69,0.12-0.92,0.35c-0.22,0.24-0.33,0.58-0.33,1.02v3.06
						h-1.4v-7.4h1.4v2.55c0.18-0.24,0.42-0.43,0.72-0.57c0.3-0.14,0.63-0.21,1-0.21C323.25,127.49,323.62,127.58,323.95,127.77z"/>
					<path fill="#3F4040" d="M327.33,132.85c-0.43-0.24-0.76-0.57-1-1c-0.24-0.43-0.37-0.93-0.37-1.5c0-0.57,0.12-1.07,0.38-1.5
						c0.25-0.43,0.59-0.77,1.03-1.01c0.43-0.24,0.92-0.35,1.45-0.35s1.02,0.12,1.45,0.35c0.43,0.24,0.78,0.57,1.03,1.01
						c0.25,0.43,0.38,0.93,0.38,1.5c0,0.57-0.13,1.07-0.39,1.5c-0.26,0.43-0.6,0.77-1.04,1c-0.44,0.24-0.93,0.35-1.47,0.35
						C328.24,133.2,327.76,133.08,327.33,132.85z M329.49,131.79c0.22-0.12,0.4-0.31,0.53-0.55c0.13-0.25,0.2-0.55,0.2-0.9
						c0-0.53-0.14-0.93-0.42-1.22c-0.28-0.28-0.62-0.42-1.01-0.42c-0.4,0-0.74,0.14-1,0.42c-0.27,0.28-0.41,0.69-0.41,1.22
						c0,0.53,0.13,0.93,0.39,1.21c0.26,0.28,0.6,0.42,1,0.42C329.03,131.98,329.27,131.92,329.49,131.79z"/>
					<path fill="#3F4040" d="M332.67,128.83c0.22-0.43,0.53-0.77,0.92-1s0.82-0.35,1.29-0.35c0.36,0,0.7,0.08,1.03,0.24
						c0.33,0.16,0.59,0.36,0.78,0.62v-2.63h1.42v7.4h-1.42v-0.82c-0.17,0.27-0.42,0.49-0.73,0.66c-0.31,0.17-0.68,0.25-1.09,0.25
						c-0.47,0-0.89-0.12-1.28-0.36c-0.39-0.24-0.69-0.58-0.92-1.02c-0.22-0.44-0.33-0.94-0.33-1.5
						C332.33,129.76,332.45,129.26,332.67,128.83z M336.5,129.47c-0.13-0.24-0.31-0.43-0.54-0.56c-0.23-0.13-0.47-0.2-0.73-0.2
						s-0.5,0.06-0.72,0.19c-0.22,0.13-0.4,0.31-0.54,0.55c-0.14,0.24-0.21,0.53-0.21,0.87s0.07,0.62,0.21,0.88s0.32,0.44,0.54,0.58
						c0.22,0.13,0.46,0.2,0.71,0.2c0.26,0,0.5-0.07,0.73-0.2c0.23-0.13,0.41-0.32,0.54-0.56c0.13-0.24,0.2-0.54,0.2-0.88
						C336.69,130,336.63,129.71,336.5,129.47z"/>
					<path fill="#3F4040" d="M340.5,132.85c-0.43-0.24-0.76-0.57-1-1c-0.24-0.43-0.37-0.93-0.37-1.5c0-0.57,0.12-1.07,0.38-1.5
						c0.25-0.43,0.59-0.77,1.03-1.01c0.43-0.24,0.92-0.35,1.45-0.35s1.02,0.12,1.45,0.35c0.43,0.24,0.78,0.57,1.03,1.01
						c0.25,0.43,0.38,0.93,0.38,1.5c0,0.57-0.13,1.07-0.39,1.5c-0.26,0.43-0.6,0.77-1.04,1c-0.44,0.24-0.93,0.35-1.47,0.35
						C341.4,133.2,340.92,133.08,340.5,132.85z M342.65,131.79c0.22-0.12,0.4-0.31,0.53-0.55c0.13-0.25,0.2-0.55,0.2-0.9
						c0-0.53-0.14-0.93-0.42-1.22c-0.28-0.28-0.62-0.42-1.01-0.42c-0.4,0-0.74,0.14-1,0.42c-0.27,0.28-0.41,0.69-0.41,1.22
						c0,0.53,0.13,0.93,0.39,1.21c0.26,0.28,0.6,0.42,1,0.42C342.19,131.98,342.43,131.92,342.65,131.79z"/>
					<path fill="#3F4040" d="M350.52,128.12c0.41,0.42,0.61,1,0.61,1.75v3.25h-1.4v-3.06c0-0.44-0.11-0.78-0.33-1.02
						c-0.22-0.24-0.52-0.35-0.9-0.35c-0.39,0-0.69,0.12-0.92,0.35c-0.22,0.24-0.33,0.58-0.33,1.02v3.06h-1.4v-5.54h1.4v0.69
						c0.19-0.24,0.42-0.43,0.71-0.57s0.61-0.21,0.96-0.21C349.58,127.49,350.12,127.7,350.52,128.12z"/>
					<path fill="#3F4040" d="M354.09,128.72v2.68c0,0.19,0.04,0.32,0.13,0.41c0.09,0.08,0.24,0.12,0.46,0.12h0.65v1.18h-0.88
						c-1.18,0-1.77-0.57-1.77-1.72v-2.67h-0.66v-1.15h0.66v-1.37h1.41v1.37h1.24v1.15H354.09z"/>
					<path fill="#3F4040" d="M356.44,126.68c-0.16-0.16-0.25-0.35-0.25-0.58s0.08-0.43,0.25-0.59c0.16-0.16,0.37-0.23,0.62-0.23
						c0.25,0,0.45,0.08,0.62,0.23c0.16,0.16,0.24,0.35,0.24,0.59s-0.08,0.43-0.24,0.58c-0.16,0.16-0.37,0.23-0.62,0.23
						C356.81,126.91,356.6,126.83,356.44,126.68z M357.74,127.57v5.54h-1.4v-5.54H357.74z"/>
					<path fill="#3F4040" d="M359.11,128.83c0.23-0.43,0.56-0.76,0.97-1c0.41-0.24,0.89-0.35,1.42-0.35c0.69,0,1.26,0.17,1.71,0.51
						c0.45,0.34,0.75,0.83,0.91,1.45h-1.51c-0.08-0.24-0.21-0.43-0.41-0.57c-0.19-0.14-0.42-0.21-0.71-0.21
						c-0.4,0-0.72,0.15-0.95,0.44s-0.35,0.7-0.35,1.24c0,0.53,0.12,0.93,0.35,1.22s0.55,0.43,0.95,0.43c0.57,0,0.94-0.25,1.11-0.76
						h1.51c-0.15,0.6-0.46,1.08-0.91,1.43c-0.45,0.35-1.02,0.53-1.7,0.53c-0.53,0-1.01-0.12-1.42-0.35c-0.41-0.24-0.74-0.57-0.97-1
						c-0.23-0.43-0.35-0.93-0.35-1.5C358.76,129.77,358.88,129.27,359.11,128.83z"/>
					<path fill="#3F4040" d="M366.04,132.96c-0.36-0.16-0.64-0.38-0.85-0.67c-0.21-0.28-0.33-0.59-0.34-0.93h1.41
						c0.03,0.21,0.13,0.39,0.32,0.53c0.18,0.14,0.41,0.21,0.68,0.21c0.27,0,0.48-0.05,0.62-0.16c0.15-0.11,0.23-0.24,0.23-0.41
						c0-0.18-0.09-0.31-0.28-0.41c-0.18-0.09-0.47-0.19-0.88-0.29c-0.41-0.1-0.75-0.2-1.01-0.31c-0.26-0.11-0.49-0.27-0.68-0.49
						c-0.19-0.22-0.29-0.52-0.29-0.89c0-0.31,0.09-0.59,0.26-0.84c0.18-0.25,0.43-0.45,0.76-0.6s0.72-0.22,1.17-0.22
						c0.66,0,1.19,0.17,1.58,0.5s0.61,0.77,0.65,1.33h-1.34c-0.02-0.22-0.11-0.4-0.28-0.53s-0.38-0.19-0.66-0.19
						c-0.25,0-0.45,0.05-0.58,0.14s-0.21,0.22-0.21,0.39c0,0.19,0.09,0.33,0.28,0.42c0.19,0.1,0.48,0.2,0.87,0.3
						c0.4,0.1,0.73,0.2,0.99,0.31c0.26,0.11,0.48,0.27,0.67,0.5c0.19,0.22,0.29,0.52,0.29,0.88c0,0.32-0.09,0.61-0.26,0.86
						c-0.18,0.25-0.43,0.45-0.76,0.59s-0.71,0.21-1.15,0.21C366.81,133.2,366.4,133.12,366.04,132.96z"/>
				</g>
			</g>
		</g>
	</g>
</g>
</svg>
